<?xml version="1.0"?>
<svg xmlns="http://www.w3.org/2000/svg" height="512px" viewBox="0 0 512 512.00075" width="512px" class=""><g><path d="m512 216.667969v196.664062c0 11.046875-8.953125 20-20 20s-20-8.953125-20-20v-187.296875l-216-180-216 180v245.964844h215.609375c11.046875 0 20 8.953125 20 20s-8.953125 20-20 20h-235.609375c-11.046875 0-20-8.953125-20-20v-275.332031c0-5.9375 2.636719-11.566407 7.195312-15.363281l236-196.667969c7.417969-6.183594 18.191407-6.183594 25.609376 0l236 196.667969c4.558593 3.796874 7.195312 9.425781 7.195312 15.363281zm-84.621094 261.191406c7.808594 7.808594 7.808594 20.472656 0 28.285156-7.8125 7.808594-20.476562 7.808594-28.285156 0l-87.308594-87.3125c-77.539062 42-174.511718-13.8125-174.511718-104.125 0-65.25 53.085937-118.332031 118.335937-118.332031 102.753906 0 155.929687 122.109375 87.828125 197.542969zm-171.769531-84.820313c43.191406 0 78.332031-35.140624 78.332031-78.332031 0-43.191406-35.140625-78.332031-78.332031-78.332031-43.195313 0-78.335937 35.140625-78.335937 78.332031 0 43.191407 35.140624 78.332031 78.335937 78.332031zm0 0" data-original="#000000" class="active-path" data-old_color="#000000" fill="#FFFFFF"/></g> </svg>
