<?xml version="1.0" encoding="utf-8"?>
<!-- Generator: Adobe Illustrator 22.0.1, SVG Export Plug-In . SVG Version: 6.00 Build 0)  -->
<svg version="1.1" id="Layer_1" xmlns="http://www.w3.org/2000/svg" xmlns:xlink="http://www.w3.org/1999/xlink" x="0px" y="0px"
	 viewBox="0 0 917.1 159.7" style="enable-background:new 0 0 917.1 159.7;" xml:space="preserve">
<style type="text/css">
	.st0{fill:#192536;}
	.st1{fill:#365FFE;}
</style>
<g>
	<path class="st0" d="M223,33.5h24.5v95.7H223V33.5z"/>
	<path class="st0" d="M296.4,59c7.4,0,13.4,2.5,18.1,7.6s7,12.3,7,21.8v40.9h-22.7v-38c0-3.6-0.9-6.2-2.8-8.1
		c-1.9-1.8-4.4-2.7-7.4-2.7c-3.6,0-6.3,1.1-8.3,3.2s-2.9,5.2-2.9,9.2v36.4h-22.7V60.9h22.7v6.8C281.5,61.9,287.9,59,296.4,59z"/>
	<path class="st0" d="M354.4,80.5c0,1.2,1.2,2.1,3.6,2.9s5.2,1.7,8.3,2.7c3.2,1,6.5,2.1,9.9,3.2s6.3,3.3,8.6,6.6
		c2.3,3.3,3.5,7.4,3.5,12.3c0,7.8-2.9,13.6-8.8,17.4c-5.9,3.7-12.8,5.6-20.9,5.6c-15.3,0-25.5-5.4-30.6-16.3l19.8-10
		c1.7,5,5.3,7.5,10.7,7.5c4.1,0,6.2-1.2,6.2-3.6c0-1.3-1.2-2.3-3.5-3.1c-2.3-0.8-5.1-1.7-8.2-2.8c-3.1-1.1-6.4-2.2-9.8-3.3
		c-3.4-1.2-6.2-3.3-8.5-6.3c-2.3-3.1-3.4-6.8-3.4-11.3c0-7.3,2.7-12.9,8.1-16.9s11.9-6,19.5-6c13.5,0,22.9,5.3,28.2,15.9L368,83.6
		c-2-3.9-4.8-5.9-8.5-5.9C356.1,77.5,354.4,78.5,354.4,80.5z"/>
	<path class="st0" d="M435.4,59c9.1,0,16.7,3.4,22.9,10.3c6.2,6.9,9.2,15.5,9.2,25.8s-3.1,18.9-9.2,25.8
		c-6.2,6.9-13.8,10.3-22.9,10.3c-8.3,0-14.8-2.7-19.4-8.2v33.6h-22.7V60.9H416v6.3C420.7,61.7,427.1,59,435.4,59z M420,105.8
		c2.6,2.7,6.1,4.1,10.4,4.1s7.7-1.4,10.4-4.1c2.6-2.7,4-6.3,4-10.8s-1.3-8.1-4-10.8c-2.6-2.7-6.1-4.1-10.4-4.1s-7.7,1.4-10.4,4.1
		c-2.6,2.7-4,6.3-4,10.8S417.3,103.1,420,105.8z"/>
	<path class="st0" d="M496.3,103.4c2.3,5.6,7.4,8.3,15.3,8.3c4.9,0,9.1-1.6,12.4-4.8l16.4,11.5c-6.7,8.5-16.5,12.7-29.4,12.7
		c-11.6,0-20.8-3.4-27.8-10.2c-7-6.8-10.5-15.4-10.5-25.8c0-10.3,3.4-18.9,10.3-25.8c6.8-6.9,15.5-10.4,26.1-10.4
		c10.2,0,18.6,3.4,25.3,10.3c6.7,6.8,10,15.4,10,25.7c0,3-0.3,5.8-1,8.5C543.4,103.4,496.3,103.4,496.3,103.4z M496,87.7h26.2
		c-1.8-6.4-6.1-9.6-12.8-9.6C502.4,78.1,497.9,81.3,496,87.7z"/>
	<path class="st0" d="M585.5,131.1c-10.4,0-19-3.5-26-10.4c-6.9-6.9-10.4-15.5-10.4-25.7s3.5-18.8,10.4-25.7
		c6.9-6.9,15.6-10.4,26-10.4c6.7,0,12.9,1.6,18.4,4.8s9.8,7.5,12.8,12.8l-19.4,11.2c-2.5-4.5-6.4-6.7-11.9-6.7c-3.8,0-7,1.3-9.6,3.9
		s-3.8,5.9-3.8,10s1.3,7.4,3.8,10s5.7,3.9,9.6,3.9c5.6,0,9.6-2.3,11.9-6.8l19.4,11.2c-3,5.5-7.3,9.8-12.8,13
		C598.4,129.5,592.2,131.1,585.5,131.1z"/>
	<path class="st0" d="M664.9,82.6h-14.2v19.8c0,3,1.1,4.9,3.3,5.6s5.8,1,10.9,0.7v20.5c-13.6,1.6-23.1,0.4-28.6-3.8
		c-5.5-4.1-8.3-11.6-8.3-22.5V82.6h-10.3V60.9H628V48.6l22.7-6.8v19.1h14.2V82.6z"/>
	<path class="st0" d="M694.6,51.4c-2.6,2.6-5.7,3.9-9.2,3.9c-3.6,0-6.6-1.3-9.2-3.9c-2.6-2.6-3.9-5.7-3.9-9.2s1.3-6.6,3.9-9.2
		c2.6-2.5,5.7-3.8,9.2-3.8c3.6,0,6.6,1.3,9.2,3.8c2.6,2.6,3.9,5.6,3.9,9.2S697.2,48.8,694.6,51.4z M674.1,129.2V60.9h22.7v68.3
		L674.1,129.2L674.1,129.2z"/>
	<path class="st0" d="M741.6,131.1c-10.1,0-18.7-3.5-25.8-10.5s-10.7-15.5-10.7-25.6s3.6-18.7,10.7-25.6S731.5,59,741.6,59
		c10.2,0,18.8,3.5,25.9,10.5c7.1,7,10.6,15.5,10.6,25.6s-3.5,18.7-10.6,25.6C760.4,127.6,751.8,131.1,741.6,131.1z M741.6,109.2
		c4,0,7.3-1.3,9.9-4c2.6-2.6,3.9-6.1,3.9-10.3c0-4.2-1.3-7.6-3.9-10.3c-2.6-2.6-5.9-4-9.9-4c-3.9,0-7.2,1.3-9.8,4
		c-2.6,2.6-3.9,6.1-3.9,10.3c0,4.2,1.3,7.6,3.9,10.3S737.7,109.2,741.6,109.2z"/>
	<path class="st0" d="M825.7,59c7.4,0,13.4,2.5,18.1,7.6c4.7,5.1,7,12.3,7,21.8v40.9h-22.7v-38c0-3.6-0.9-6.2-2.8-8.1
		c-1.9-1.8-4.4-2.7-7.4-2.7c-3.6,0-6.3,1.1-8.3,3.2s-2.9,5.2-2.9,9.2v36.4H784V60.9h22.7v6.8C810.8,61.9,817.1,59,825.7,59z"/>
	<path class="st0" d="M880.9,80.5c0,1.2,1.2,2.1,3.6,2.9c2.4,0.8,5.2,1.7,8.3,2.7c3.2,1,6.5,2.1,9.9,3.2s6.3,3.3,8.6,6.6
		s3.5,7.4,3.5,12.3c0,7.8-2.9,13.6-8.8,17.4c-5.9,3.8-12.8,5.6-20.9,5.6c-15.3,0-25.5-5.4-30.6-16.3l19.8-10c1.7,5,5.3,7.5,10.7,7.5
		c4.1,0,6.2-1.2,6.2-3.6c0-1.3-1.2-2.3-3.5-3.1c-2.3-0.8-5.1-1.7-8.2-2.8c-3.1-1.1-6.4-2.2-9.8-3.3c-3.4-1.2-6.2-3.3-8.5-6.3
		c-2.3-3.1-3.4-6.8-3.4-11.3c0-7.3,2.7-12.9,8.1-16.9c5.4-4,11.9-6,19.5-6c13.5,0,22.9,5.3,28.2,15.9l-19.1,8.6
		c-2-3.9-4.8-5.9-8.5-5.9C882.6,77.5,880.9,78.5,880.9,80.5z"/>
</g>
<polygon class="st1" points="149.2,127.7 79.2,127.7 156.2,31.7 191.2,31.7 206.2,127.7 178.2,127.7 168.2,63.7 135.2,104.7 
	169.2,104.7 "/>
<polygon class="st1" points="67.2,127.7 -2.8,127.7 74.2,31.7 109.2,31.7 116.2,69.7 92.2,99.7 86.2,63.7 53.2,104.7 87.2,104.7 "/>
</svg>
