<?xml version="1.0"?>
<svg xmlns="http://www.w3.org/2000/svg" height="512px" viewBox="0 0 512.016 512.016" width="512px"><g><path d="m496 272.015625h-480c-8.832031 0-16-7.167969-16-16s7.167969-16 16-16h480c8.832031 0 16 7.167969 16 16s-7.167969 16-16 16zm0 0" data-original="#000000" class="active-path" data-old_color="#000000" fill="#FFFFFF"/><path d="m256 512.015625c-8.832031 0-16-7.167969-16-16v-480c0-8.832031 7.167969-16 16-16s16 7.167969 16 16v480c0 8.832031-7.167969 16-16 16zm0 0" data-original="#000000" class="active-path" data-old_color="#000000" fill="#FFFFFF"/><path d="m336 112.015625c-4.097656 0-8.191406-1.558594-11.308594-4.691406l-68.691406-68.671875-68.691406 68.671875c-6.253906 6.25-16.386719 6.25-22.636719 0-6.25-6.253907-6.25-16.386719 0-22.636719l80-80c6.25-6.25 16.382813-6.25 22.636719 0l80 80c6.25 6.25 6.25 16.382812 0 22.636719-3.117188 3.132812-7.210938 4.691406-11.308594 4.691406zm0 0" data-original="#000000" class="active-path" data-old_color="#000000" fill="#FFFFFF"/><path d="m256 512.015625c-4.097656 0-8.191406-1.558594-11.308594-4.691406l-80-80c-6.25-6.253907-6.25-16.386719 0-22.636719 6.253906-6.25 16.386719-6.25 22.636719 0l68.691406 68.695312 68.695313-68.695312c6.25-6.25 16.382812-6.25 22.632812 0 6.253906 6.25 6.253906 16.382812 0 22.636719l-80 80c-3.15625 3.132812-7.25 4.691406-11.347656 4.691406zm0 0" data-original="#000000" class="active-path" data-old_color="#000000" fill="#FFFFFF"/><path d="m96 352.015625c-4.097656 0-8.191406-1.558594-11.308594-4.691406l-80-80c-6.25-6.253907-6.25-16.386719 0-22.636719l80-80c6.253906-6.25 16.386719-6.25 22.636719 0s6.25 16.382812 0 22.636719l-68.695313 68.691406 68.695313 68.695313c6.25 6.25 6.25 16.382812 0 22.632812-3.136719 3.113281-7.230469 4.671875-11.328125 4.671875zm0 0" data-original="#000000" class="active-path" data-old_color="#000000" fill="#FFFFFF"/><path d="m416 352.015625c-4.097656 0-8.191406-1.558594-11.308594-4.691406-6.25-6.253907-6.25-16.386719 0-22.636719l68.695313-68.691406-68.695313-68.695313c-6.25-6.25-6.25-16.382812 0-22.632812 6.253906-6.253907 16.386719-6.253907 22.636719 0l80 80c6.25 6.25 6.25 16.382812 0 22.632812l-80 80c-3.136719 3.15625-7.230469 4.714844-11.328125 4.714844zm0 0" data-original="#000000" class="active-path" data-old_color="#000000" fill="#FFFFFF"/></g> </svg>
